<svg width="246" height="29" viewBox="0 0 246 29" fill="none" xmlns="http://www.w3.org/2000/svg">
<path d="M7.27467 28.448C5.93778 28.448 4.58667 28.2276 3.22133 27.7867C1.856 27.3316 0.981333 26.8907 0.597333 26.464L1.152 23.0293C1.63556 23.4987 2.43911 23.904 3.56267 24.2453C4.70044 24.5867 5.85956 24.7573 7.04 24.7573C7.89333 24.7573 8.47644 24.6507 8.78933 24.4373C9.11644 24.224 9.28 23.9253 9.28 23.5413C9.28 23.1716 8.99556 22.8444 8.42667 22.56C7.85778 22.2613 6.93333 21.92 5.65333 21.536C2.33956 20.5404 0.682667 18.4782 0.682667 15.3493C0.682667 14.0693 1.05244 12.9742 1.792 12.064C2.53156 11.1396 3.47733 10.4711 4.62933 10.0587C5.78133 9.64622 7.06844 9.44 8.49067 9.44C10.9227 9.44 12.7147 9.888 13.8667 10.784C14.1227 11.0258 14.2507 11.1467 14.2507 11.1467L13.312 14.1973C12.3733 13.2729 11.0791 12.8107 9.42933 12.8107C8.07822 12.8107 7.40267 13.2089 7.40267 14.0053C7.40267 14.2329 7.45244 14.4249 7.552 14.5813C7.65156 14.7236 7.81511 14.8516 8.04267 14.9653C8.28444 15.0649 8.51911 15.1502 8.74667 15.2213C8.97422 15.2782 9.29422 15.3636 9.70667 15.4773C10.1191 15.5769 10.4747 15.6693 10.7733 15.7547C12.4373 16.3093 13.6462 17.0916 14.4 18.1013C15.1538 19.1111 15.5307 20.3698 15.5307 21.8773C15.5307 26.2578 12.7787 28.448 7.27467 28.448ZM17.1168 28V3.872L15.8368 3.104V1.12L22.6848 0.0533333H24.0715V28H17.1168ZM36.13 26.1013L35.9167 26.336C35.7744 26.5067 35.554 26.7058 35.2553 26.9333C34.9709 27.1609 34.6367 27.3884 34.2527 27.616C33.8829 27.8436 33.4278 28.0356 32.8873 28.192C32.3469 28.3627 31.7922 28.448 31.2233 28.448C27.3833 28.448 25.4633 26.5493 25.4633 22.752C25.4633 22.0124 25.5984 21.3369 25.8687 20.7253C26.1389 20.0996 26.4873 19.5733 26.914 19.1467C27.3407 18.72 27.8527 18.3431 28.45 18.016C29.0473 17.6747 29.6447 17.4116 30.242 17.2267C30.8536 17.0276 31.4936 16.864 32.162 16.736C32.8304 16.608 33.4278 16.5227 33.954 16.48C34.4802 16.4373 34.9851 16.416 35.4687 16.416V16.032C35.4687 15.1644 35.234 14.5529 34.7647 14.1973C34.3096 13.8418 33.57 13.664 32.546 13.664C31.6642 13.664 30.7469 13.7707 29.794 13.984C28.8411 14.1831 28.0944 14.4249 27.554 14.7093L26.1887 11.808C27.1558 11.1822 28.4144 10.6347 29.9647 10.1653C31.5149 9.68178 33.0936 9.44 34.7007 9.44C36.1229 9.44 37.2962 9.58222 38.2207 9.86667C39.1451 10.1369 39.8918 10.6062 40.4607 11.2747C41.0438 11.9289 41.4562 12.768 41.698 13.792C41.9398 14.8018 42.0607 16.0889 42.0607 17.6533V26.336L42.658 28H36.8127L36.13 26.1013ZM34.4447 24.6933C34.6296 24.6933 34.8002 24.6578 34.9567 24.5867C35.1273 24.5013 35.2553 24.4231 35.3407 24.352C35.426 24.2667 35.4687 24.224 35.4687 24.224V19.104C34.6011 19.104 33.9113 19.3458 33.3993 19.8293C32.8873 20.2987 32.6313 21.0311 32.6313 22.0267C32.6313 23.8044 33.2358 24.6933 34.4447 24.6933ZM56.7143 28L55.8823 25.248C55.7686 25.4471 55.6334 25.6462 55.477 25.8453C55.3348 26.0444 55.1001 26.3004 54.773 26.6133C54.4459 26.912 54.0974 27.1751 53.7277 27.4027C53.3579 27.6302 52.8957 27.8293 52.341 28C51.7863 28.1707 51.2032 28.256 50.5917 28.256C48.245 28.256 46.5241 27.4524 45.429 25.8453C44.3339 24.2382 43.7863 22.0053 43.7863 19.1467C43.7863 17.3547 44.0423 15.7618 44.5543 14.368C45.0663 12.96 45.8699 11.8293 46.965 10.976C48.0601 10.1227 49.3828 9.696 50.933 9.696C51.8574 9.696 52.6823 9.79556 53.4077 9.99467C54.133 10.1938 54.7588 10.4356 55.285 10.72V4.256L52.9383 3.46667V1.12L60.4903 0.0533333H62.1543V28H56.7143ZM53.7063 24.0747C53.9623 24.0747 54.2254 24.032 54.4957 23.9467C54.7659 23.8471 55.029 23.712 55.285 23.5413V12.8107C54.8441 12.7111 54.4388 12.6613 54.069 12.6613C52.1774 12.6756 51.2246 14.1333 51.2103 17.0347V20.0213C51.2103 21.3582 51.445 22.368 51.9143 23.0507C52.3837 23.7333 52.981 24.0747 53.7063 24.0747ZM75.4283 28L72.1217 19.2747L75.6203 9.86667H83.6203L78.031 18.2507L83.7483 28H75.4283ZM64.7403 28V3.872L63.4603 3.104V1.12L70.3083 0.0533333H71.695V28H64.7403ZM93.115 25.888C93.7408 25.888 94.2172 25.632 94.5443 25.12C94.8857 24.5938 95.0563 23.8756 95.0563 22.9653V16.224C95.0563 13.4507 94.4021 12.064 93.0937 12.064C92.4821 12.064 92.0057 12.3129 91.6643 12.8107C91.323 13.3084 91.1523 14.0124 91.1523 14.9227V21.856C91.1523 24.544 91.8066 25.888 93.115 25.888ZM92.9443 28.448C89.6874 28.448 87.3052 27.7084 85.7977 26.2293C84.2901 24.7502 83.5363 22.3893 83.5363 19.1467C83.5363 15.9324 84.2972 13.5147 85.819 11.8933C87.3408 10.2578 89.8154 9.44 93.243 9.44C96.5852 9.44 98.9959 10.2222 100.475 11.7867C101.968 13.3369 102.715 15.6907 102.715 18.848C102.715 22.1191 101.926 24.5369 100.347 26.1013C98.7826 27.6658 96.315 28.448 92.9443 28.448ZM114.618 16.9707C114.618 15.1644 114.525 13.8844 114.34 13.1307C114.155 12.3769 113.814 12 113.316 12C112.89 12 112.541 12.0782 112.271 12.2347C112.001 12.3769 111.802 12.6116 111.674 12.9387C111.546 13.2516 111.46 13.5787 111.418 13.92C111.389 14.2471 111.375 14.6667 111.375 15.1787V16.9707H114.618ZM112.911 28.448C111.318 28.448 109.931 28.2062 108.751 27.7227C107.585 27.2391 106.66 26.5636 105.978 25.696C105.309 24.8284 104.819 23.8542 104.506 22.7733C104.193 21.6782 104.036 20.4622 104.036 19.1253C104.036 15.9396 104.847 13.5289 106.468 11.8933C108.09 10.2578 110.358 9.44 113.274 9.44C116.075 9.44 118.081 10.1013 119.29 11.424C120.499 12.7324 121.103 14.8444 121.103 17.76V20.128H111.354V20.5333C111.354 21.3724 111.439 22.0622 111.61 22.6027C111.795 23.1431 112.058 23.5413 112.399 23.7973C112.74 24.0533 113.089 24.224 113.444 24.3093C113.8 24.3947 114.234 24.4373 114.746 24.4373C115.243 24.4373 115.777 24.3733 116.346 24.2453C116.929 24.1173 117.512 23.9182 118.095 23.648C118.692 23.3778 119.19 23.0578 119.588 22.688L120.847 24.8427C120.321 25.696 119.546 26.4142 118.522 26.9973C117.512 27.5662 116.538 27.9502 115.599 28.1493C114.66 28.3484 113.764 28.448 112.911 28.448ZM122.945 28C122.902 27.5164 122.788 26.8907 122.603 26.1227C122.418 25.3404 122.241 24.7147 122.07 24.2453L129.665 14.5173L132.054 12.7467C131.414 12.7467 130.831 12.7822 130.305 12.8533C129.793 12.9102 129.359 12.9813 129.003 13.0667C128.648 13.152 128.321 13.2871 128.022 13.472C127.723 13.6427 127.496 13.792 127.339 13.92C127.183 14.0338 127.026 14.2116 126.87 14.4533C126.714 14.6951 126.607 14.88 126.55 15.008C126.507 15.1218 126.436 15.3138 126.337 15.584C126.237 15.8542 126.173 16.032 126.145 16.1173H123.201V9.86667H137.473C137.544 10.3502 137.665 10.9049 137.835 11.5307C138.02 12.1564 138.226 12.7467 138.454 13.3013L132.118 22.688L129.494 24.6293C130.859 24.6293 131.933 24.5724 132.715 24.4587C133.896 24.288 134.664 23.9111 135.019 23.328C135.162 23.1004 135.361 22.5102 135.617 21.5573H138.113V28H122.945ZM147.09 28H140.178V3.872L138.898 3.104V1.12L145.746 0.0533333H147.132V12.6187L147.389 12.2987C147.559 12.0711 147.808 11.8009 148.135 11.488C148.476 11.1751 148.853 10.8693 149.266 10.5707C149.678 10.2578 150.169 9.99467 150.738 9.78133C151.321 9.55378 151.89 9.44 152.444 9.44C154.393 9.44 155.765 9.97333 156.562 11.04C157.373 12.1067 157.778 13.8916 157.778 16.3947C157.778 16.48 157.778 16.608 157.778 16.7787C157.764 16.9493 157.757 17.0844 157.757 17.184V28H150.717V16.5653C150.759 15.2284 150.19 14.56 149.01 14.56C148.896 14.56 148.782 14.5671 148.668 14.5813C148.569 14.5956 148.462 14.6311 148.349 14.688C148.235 14.7449 148.142 14.7876 148.071 14.816C148.014 14.8444 147.922 14.9013 147.794 14.9867C147.68 15.072 147.602 15.1289 147.559 15.1573C147.531 15.1858 147.445 15.2569 147.303 15.3707C147.175 15.4844 147.104 15.5484 147.09 15.5627V28ZM170.803 28L167.497 19.2747L170.995 9.86667H178.995L173.406 18.2507L179.123 28H170.803ZM160.115 28V3.872L158.835 3.104V1.12L165.683 0.0533333H167.07V28H160.115ZM188.49 25.888C189.116 25.888 189.592 25.632 189.919 25.12C190.261 24.5938 190.431 23.8756 190.431 22.9653V16.224C190.431 13.4507 189.777 12.064 188.469 12.064C187.857 12.064 187.381 12.3129 187.039 12.8107C186.698 13.3084 186.527 14.0124 186.527 14.9227V21.856C186.527 24.544 187.182 25.888 188.49 25.888ZM188.319 28.448C185.062 28.448 182.68 27.7084 181.173 26.2293C179.665 24.7502 178.911 22.3893 178.911 19.1467C178.911 15.9324 179.672 13.5147 181.194 11.8933C182.716 10.2578 185.19 9.44 188.618 9.44C191.96 9.44 194.371 10.2222 195.85 11.7867C197.343 13.3369 198.09 15.6907 198.09 18.848C198.09 22.1191 197.301 24.5369 195.722 26.1013C194.158 27.6658 191.69 28.448 188.319 28.448ZM204.553 28L198.281 9.86667H205.939L207.305 16.416L208.286 22.0693L209.374 16.416L210.953 9.86667H216.713L211.273 28H204.553ZM226.49 25.888C227.116 25.888 227.592 25.632 227.919 25.12C228.261 24.5938 228.431 23.8756 228.431 22.9653V16.224C228.431 13.4507 227.777 12.064 226.469 12.064C225.857 12.064 225.381 12.3129 225.039 12.8107C224.698 13.3084 224.527 14.0124 224.527 14.9227V21.856C224.527 24.544 225.182 25.888 226.49 25.888ZM226.319 28.448C223.062 28.448 220.68 27.7084 219.173 26.2293C217.665 24.7502 216.911 22.3893 216.911 19.1467C216.911 15.9324 217.672 13.5147 219.194 11.8933C220.716 10.2578 223.19 9.44 226.618 9.44C229.96 9.44 232.371 10.2222 233.85 11.7867C235.343 13.3369 236.09 15.6907 236.09 18.848C236.09 22.1191 235.301 24.5369 233.722 26.1013C232.158 27.6658 229.69 28.448 226.319 28.448ZM240.59 28.4053L237.091 24.8853V24.1387L240.59 20.64H241.401L245.049 24.1387V24.8853L241.401 28.4053H240.59Z" fill="#4B4596"/>
</svg>
